<?xml version="1.0" standalone="no"?>
<!DOCTYPE svg PUBLIC "-//W3C//DTD SVG 20010904//EN"
 "http://www.w3.org/TR/2001/REC-SVG-20010904/DTD/svg10.dtd">
<svg version="1.0" xmlns="http://www.w3.org/2000/svg"
 width="512.000000pt" height="512.000000pt" viewBox="0 0 512.000000 512.000000"
 preserveAspectRatio="xMidYMid meet">
<metadata>
Created by potrace 1.14, written by Peter Selinger 2001-2017
</metadata>
<g transform="translate(0.000000,512.000000) scale(0.100000,-0.100000)"
fill="#000000" stroke="none">
<path d="M0 2560 l0 -2560 2560 0 2560 0 0 2560 0 2560 -2560 0 -2560 0 0
-2560z m2814 2235 c772 -90 1438 -563 1771 -1257 377 -786 272 -1709 -272
-2387 -125 -155 -387 -401 -428 -401 -8 0 -66 18 -129 41 -94 33 -120 47 -140
74 -14 18 -49 48 -78 68 -51 33 -54 39 -66 95 -7 33 -22 74 -35 92 -29 43 -84
87 -121 96 l-28 7 7 -89 c3 -49 11 -104 17 -123 16 -50 4 -141 -27 -210 -15
-34 -31 -61 -34 -61 -4 0 -15 -14 -25 -31 -19 -32 -145 -186 -203 -249 -18
-19 -40 -50 -48 -67 -20 -41 -34 -48 -120 -62 -189 -29 -503 -22 -679 14 -73
15 -87 22 -69 33 6 4 12 14 14 22 6 25 -23 114 -43 133 -10 10 -18 21 -18 26
0 5 -16 26 -35 47 -20 21 -55 61 -78 87 -23 26 -52 58 -63 70 -12 12 -37 49
-55 82 -34 60 -34 61 -36 205 -2 138 -3 145 -23 148 -29 5 -158 -26 -190 -45
-34 -20 -84 -103 -107 -178 -16 -52 -24 -62 -70 -92 -28 -18 -54 -37 -57 -42
-3 -4 -27 -14 -53 -21 -27 -7 -61 -19 -76 -27 -27 -14 -31 -12 -84 29 -78 59
-245 228 -322 323 -484 600 -628 1418 -379 2145 342 996 1341 1627 2382 1505z"/>
<path d="M2360 4264 c-36 -8 -100 -18 -142 -23 -72 -9 -100 -20 -223 -83 -43
-22 -85 -56 -85 -70 0 -5 -17 -26 -37 -46 -21 -21 -60 -63 -88 -95 -27 -31
-55 -57 -60 -57 -6 0 -11 -9 -12 -20 -1 -10 -26 -48 -56 -83 -65 -76 -96 -152
-107 -259 -5 -42 -13 -85 -19 -96 -24 -46 -35 -336 -18 -489 l8 -73 -30 0
c-26 0 -31 -4 -31 -22 0 -42 11 -63 45 -88 19 -14 37 -32 41 -40 3 -8 8 -59 9
-113 3 -94 -1 -109 -30 -113 -5 0 -15 -2 -22 -2 -15 -3 -29 -50 -25 -85 2 -19
13 -34 33 -45 16 -10 29 -22 29 -27 0 -6 11 -22 25 -37 26 -28 30 -44 75 -273
12 -60 35 -153 52 -205 31 -96 108 -257 132 -275 7 -5 19 -28 26 -50 7 -22 24
-64 37 -93 12 -29 23 -56 23 -60 1 -15 37 -50 58 -56 12 -4 22 -14 22 -22 0
-19 -9 -18 -34 3 l-21 18 19 -23 c13 -15 26 -20 39 -16 16 5 19 3 14 -10 -4
-10 -3 -15 2 -12 17 11 42 -31 36 -57 -8 -30 3 -56 15 -38 8 14 40 4 40 -13 0
-6 9 -22 19 -35 16 -20 20 -22 39 -10 18 11 24 11 40 -4 10 -9 26 -17 35 -17
9 0 28 -12 42 -27 14 -15 25 -22 25 -15 0 6 7 12 15 12 8 0 15 6 15 14 0 9 8
12 24 9 13 -3 27 0 30 6 5 7 -5 11 -26 12 -33 1 -33 1 -6 9 15 4 40 17 55 28
26 18 75 32 116 33 9 0 15 4 12 9 -3 6 0 7 8 4 8 -3 22 2 31 11 9 10 21 13 28
8 7 -4 40 -8 72 -9 36 0 61 -5 64 -12 2 -7 11 -12 20 -12 13 0 13 -2 -2 -13
-17 -12 -17 -14 -2 -14 22 0 69 44 61 57 -3 6 3 10 13 10 29 0 109 38 116 55
3 8 13 15 21 15 9 0 14 4 10 9 -6 11 29 34 38 25 3 -3 15 13 26 36 15 32 17
40 6 36 -8 -3 -15 -1 -15 4 0 6 4 10 9 10 5 0 13 9 16 20 3 11 13 20 21 20 8
0 14 6 14 13 0 6 23 39 50 72 28 33 50 65 50 72 0 7 6 16 13 20 14 9 37 48 37
63 0 6 9 23 19 38 11 15 36 79 56 142 20 63 41 123 46 132 5 10 9 31 9 47 0
17 8 52 19 78 20 51 27 90 36 188 4 33 11 98 16 145 6 47 14 134 18 193 7 87
12 112 29 130 35 38 82 126 71 133 -6 3 -8 22 -4 43 9 52 9 427 0 441 -6 9
-36 143 -62 270 -7 36 -46 120 -56 120 -4 0 -6 4 -2 9 3 5 -1 15 -8 23 -7 7
-21 34 -31 60 -29 79 -123 154 -301 242 -270 133 -418 196 -401 168 4 -6 -2
-8 -15 -5 -16 5 -18 8 -7 15 9 7 6 8 -11 4 -14 -3 -45 -1 -70 4 -86 16 -166
18 -231 4z m-410 -168 c0 -3 -4 -8 -10 -11 -5 -3 -10 -1 -10 4 0 6 5 11 10 11
6 0 10 -2 10 -4z m990 -316 c21 0 42 -4 45 -10 3 -5 14 -10 23 -10 10 0 33
-13 52 -28 19 -16 60 -45 90 -65 75 -49 122 -101 118 -129 -2 -13 2 -27 9 -33
13 -10 54 -150 75 -250 5 -27 14 -58 19 -68 25 -46 47 -163 48 -259 1 -57 6
-170 11 -253 6 -82 8 -163 6 -180 -8 -49 -34 -148 -47 -180 -16 -40 -22 -64
-23 -97 -1 -16 -4 -28 -8 -28 -5 0 -8 -8 -8 -18 0 -10 -4 -22 -10 -28 -11 -11
-32 -152 -24 -165 3 -5 -2 -12 -10 -15 -9 -3 -14 -10 -11 -15 3 -4 -3 -6 -14
-4 -11 2 -22 -3 -25 -11 -3 -9 1 -14 11 -14 13 0 14 -3 5 -12 -7 -7 -12 -20
-12 -30 0 -10 -4 -18 -10 -18 -5 0 -10 -7 -10 -16 0 -10 -6 -14 -15 -10 -11 4
-15 -1 -15 -19 0 -14 -5 -25 -11 -25 -6 0 -9 -9 -6 -20 3 -11 1 -20 -4 -20 -5
0 -9 -8 -9 -17 -1 -17 -1 -17 -11 0 -15 26 -27 21 -34 -16 -4 -17 -12 -37 -17
-44 -5 -7 -7 -17 -3 -23 3 -5 1 -10 -5 -10 -6 0 -9 -3 -7 -7 3 -5 -1 -21 -8
-38 -7 -16 -14 -24 -14 -17 -1 7 -6 10 -11 7 -6 -4 -7 -12 -3 -18 3 -7 -3 -3
-15 7 -26 22 -29 41 -6 32 13 -5 15 -2 10 16 -3 13 -6 29 -6 36 0 22 -15 12
-32 -24 -19 -37 -23 -60 -10 -67 4 -2 1 -2 -5 -1 -7 2 -13 -3 -13 -10 0 -19
-25 -27 -40 -13 -10 10 -10 8 -2 -9 6 -11 7 -26 2 -33 -6 -11 -9 -10 -13 5 -4
15 -5 14 -6 -6 l-2 -25 -10 25 c-8 19 -12 22 -19 10 -5 -8 -6 -18 -4 -22 5 -8
-2 -18 -48 -70 -20 -22 -31 -28 -40 -21 -16 11 -27 11 -55 -5 -19 -10 -20 -10
-16 8 3 11 9 23 14 26 5 3 9 12 9 20 0 8 -4 12 -10 9 -5 -3 -10 -2 -10 3 0 5
-11 10 -26 10 -23 -1 -24 -3 -19 -30 7 -28 5 -29 -16 -23 -18 5 -20 4 -9 -4
13 -9 13 -13 -3 -28 -17 -17 -18 -17 -11 0 7 19 -20 25 -31 6 -4 -6 -13 -8
-21 -5 -8 3 -14 0 -15 -7 0 -9 -2 -9 -6 1 -9 22 -25 13 -18 -10 6 -22 6 -22
-14 2 -11 14 -21 32 -21 40 0 12 -2 12 -9 2 -4 -8 -12 -13 -17 -12 -5 1 -12
-9 -16 -22 -5 -20 -6 -18 -7 10 -1 17 -6 32 -12 32 -5 0 -7 -4 -4 -10 7 -12
-12 -50 -25 -50 -6 0 -10 7 -10 16 0 8 -4 12 -10 9 -5 -3 -10 -1 -10 6 0 8 -4
8 -16 -2 -13 -11 -17 -10 -26 4 -5 10 -13 15 -18 12 -5 -3 -11 -1 -14 4 -4 5
-2 12 4 16 6 4 5 11 -4 21 -17 17 -30 19 -20 2 5 -7 3 -8 -5 -3 -7 4 -10 17
-7 29 3 13 1 37 -3 54 -6 19 -6 34 0 37 5 4 9 11 9 16 0 6 -11 -2 -24 -16 -19
-21 -25 -23 -30 -10 -3 8 0 15 6 15 6 0 8 3 5 6 -4 4 -13 1 -22 -6 -12 -10
-15 -10 -15 3 0 18 -29 37 -47 30 -12 -4 -12 14 0 35 5 7 3 12 -7 12 -11 0
-16 9 -16 29 0 18 -11 41 -27 59 -36 39 -58 65 -59 72 -2 20 -29 58 -36 53 -6
-3 -6 2 0 13 5 11 7 24 5 31 -2 7 5 12 19 13 63 1 82 0 87 -8 7 -10 47 -20
108 -26 34 -4 43 -1 48 14 5 16 16 24 35 29 3 0 28 7 55 15 28 8 85 17 128 21
138 12 73 20 -145 18 -224 -2 -292 3 -282 18 3 5 10 7 15 3 6 -3 28 8 49 25
27 21 40 27 44 18 4 -9 7 -9 11 -1 3 7 15 10 25 7 13 -3 20 0 20 8 0 9 3 10
10 3 7 -7 30 -7 68 -1 31 5 100 9 154 10 86 2 98 4 116 25 21 24 42 29 42 10
0 -7 5 -5 11 5 6 10 8 24 5 32 -3 9 0 12 9 8 8 -3 13 -9 10 -13 -5 -8 26 -21
54 -24 17 -1 24 36 8 46 -6 4 -8 10 -4 14 7 8 39 -15 33 -25 -5 -9 33 -41 38
-32 6 9 -8 27 -41 55 -19 16 -25 17 -38 6 -13 -11 -15 -10 -10 1 8 22 -19 54
-36 43 -8 -5 -23 -10 -34 -10 -11 -1 -28 -2 -38 -3 -12 -1 -16 -5 -11 -13 6
-9 3 -9 -9 0 -19 16 -77 22 -77 8 0 -5 -3 -6 -7 -3 -9 10 -33 -13 -33 -32 0
-10 -7 -26 -16 -37 -8 -10 -13 -13 -9 -6 3 6 -1 15 -10 18 -12 5 -13 9 -4 20
9 11 9 14 0 14 -7 0 -10 4 -7 9 3 5 -1 12 -10 15 -8 3 -13 10 -9 16 3 5 -3 15
-15 22 -24 15 -26 44 -4 56 14 8 14 11 -7 26 -39 27 -99 15 -86 -18 8 -20 -8
-29 -39 -22 -29 8 -48 49 -39 84 5 20 11 23 32 19 26 -5 58 14 46 27 -3 3 2 8
11 12 9 3 14 9 11 13 -2 4 2 8 10 8 8 0 15 -5 15 -11 1 -19 24 28 27 54 5 35
24 81 32 76 4 -3 6 7 5 22 -11 126 -12 152 -5 156 5 3 7 21 5 41 -1 19 2 37 7
41 5 3 6 10 3 16 -4 7 -14 1 -25 -13 -10 -13 -19 -18 -19 -11 0 7 -4 11 -9 7
-6 -3 -14 2 -19 11 -7 13 -13 14 -30 5 -18 -10 -26 -7 -57 24 -50 48 -100 60
-201 47 -146 -19 -270 -98 -280 -177 -2 -20 -11 -47 -20 -59 -14 -22 -13 -24
6 -29 16 -4 20 -2 16 9 -6 15 26 54 44 54 10 0 50 20 60 30 24 24 54 29 142
21 105 -9 141 -22 131 -49 -4 -9 -12 -21 -20 -25 -7 -4 -13 -12 -13 -16 0 -14
37 -19 51 -7 9 8 10 8 6 0 -4 -7 2 -14 13 -17 21 -5 28 -27 9 -27 -5 0 -7 -5
-4 -10 4 -6 1 -17 -5 -25 -10 -11 -10 -15 -1 -15 7 0 9 -4 6 -10 -3 -5 -14
-10 -24 -10 -10 0 -23 -10 -29 -22 -22 -44 -34 -185 -18 -207 8 -11 8 -13 -1
-7 -8 4 -13 1 -13 -9 0 -8 -7 -18 -15 -21 -8 -4 -13 -10 -10 -15 3 -4 12 -6
19 -3 20 8 30 -28 12 -42 -9 -6 -13 -13 -10 -16 3 -3 -8 -10 -23 -16 -15 -6
-41 -22 -57 -36 -16 -14 -32 -26 -37 -26 -4 0 -21 -21 -38 -47 -38 -57 -40
-98 -6 -147 14 -21 23 -42 20 -47 -4 -5 -1 -9 4 -9 6 0 10 -10 8 -22 -1 -16 3
-22 13 -20 10 2 6 -6 -10 -24 -14 -15 -20 -24 -13 -20 6 3 14 2 18 -4 3 -5 1
-10 -4 -10 -6 0 -11 -5 -11 -11 0 -6 -7 -17 -15 -25 -10 -10 -15 -11 -15 -3 0
9 -3 9 -15 -1 -8 -6 -19 -9 -25 -5 -5 3 -10 1 -10 -6 0 -7 -3 -10 -6 -6 -3 3
-2 12 2 19 15 24 12 36 -9 42 -16 4 -18 8 -8 19 9 12 9 21 0 41 -7 14 -16 26
-21 26 -5 0 -6 5 -3 10 4 6 -5 10 -19 10 -16 0 -26 6 -26 15 0 17 12 19 26 5
7 -7 11 -6 11 5 0 8 -3 15 -6 16 -3 0 -13 2 -22 4 -13 2 -17 -4 -15 -31 1 -26
-2 -33 -14 -29 -9 3 -22 -4 -30 -15 -16 -22 -34 -27 -27 -7 2 6 0 20 -5 30 -5
11 -5 17 2 17 12 0 14 33 2 44 -4 4 -8 12 -8 17 -1 5 -2 12 -3 15 0 4 -8 1
-16 -6 -27 -22 -18 24 10 50 14 13 25 27 25 32 0 5 -11 -3 -25 -18 -22 -24
-25 -25 -25 -7 0 10 5 24 10 29 13 13 -8 67 -21 58 -9 -5 -10 -2 -13 46 -1 14
-8 41 -15 61 -6 20 -11 41 -10 45 3 11 -7 52 -31 134 -24 80 -29 146 -18 230
4 36 10 130 14 210 3 80 10 163 16 185 11 45 58 157 70 165 4 3 11 26 17 50 5
25 15 46 20 48 6 2 11 12 11 23 0 10 4 19 8 19 10 0 9 36 0 46 -4 3 1 19 10
35 11 20 23 28 35 25 9 -2 17 0 17 5 0 5 5 9 10 9 6 0 10 -7 10 -15 0 -13 4
-14 21 -4 16 8 23 8 29 -1 10 -16 45 -8 45 10 0 8 5 18 10 22 6 4 0 8 -12 8
-13 0 -23 5 -23 11 0 5 5 7 10 4 6 -3 10 0 10 8 0 8 6 15 13 14 6 0 23 1 37 2
l25 2 -22 9 c-13 5 -23 14 -23 20 0 6 -6 8 -12 4 -7 -3 -1 6 15 20 15 15 25
31 22 37 -4 5 1 9 10 9 12 0 15 -5 11 -16 -5 -14 -4 -15 8 -4 9 6 14 17 13 23
-2 10 7 13 73 21 47 6 85 19 97 35 7 9 13 11 13 5 0 -9 9 -9 34 0 19 7 67 11
106 9 45 -2 69 1 65 7 -3 6 4 10 17 10 13 0 29 5 35 11 7 7 19 8 30 4 25 -11
87 -5 95 8 4 7 8 9 8 5 0 -4 16 0 36 8 20 8 51 14 70 12 18 -1 36 1 39 4 4 4
14 4 22 1 8 -3 18 -1 22 5 3 6 24 12 46 14 22 2 47 9 55 17 10 9 15 10 18 2 2
-6 21 -11 42 -11z m-810 -925 c0 -8 -2 -15 -4 -15 -2 0 -6 7 -10 15 -3 8 -1
15 4 15 6 0 10 -7 10 -15z m-134 -20 c4 -14 4 -28 2 -31 -10 -9 -51 33 -44 44
12 21 35 13 42 -13z m166 -25 c-12 -11 -17 -15 -12 -8 6 7 10 21 10 32 0 16 3
17 12 8 10 -10 7 -17 -10 -32z m-112 10 c0 -5 -4 -10 -10 -10 -5 0 -10 5 -10
10 0 6 5 10 10 10 6 0 10 -4 10 -10z m658 -625 c-3 -3 -9 2 -12 12 -6 14 -5
15 5 6 7 -7 10 -15 7 -18z m-894 -380 c-7 -16 -24 -21 -24 -6 0 8 7 13 27 20
1 1 0 -6 -3 -14z m462 -293 c-17 -16 -18 -16 -5 5 7 12 15 20 18 17 3 -2 -3
-12 -13 -22z m14 -107 c0 -5 -5 -3 -10 5 -5 8 -10 20 -10 25 0 6 5 3 10 -5 5
-8 10 -19 10 -25z m57 -57 c2 -18 0 -20 -7 -8 -12 18 -13 30 -2 30 4 0 9 -10
9 -22z m393 -189 c0 -5 -9 -9 -20 -9 -22 0 -27 16 -7 23 15 5 27 -1 27 -14z
m-497 -30 c5 -3 0 -9 -11 -11 -15 -4 -18 -1 -14 14 2 10 7 15 11 11 3 -4 10
-11 14 -14z m68 -97 c-7 -2 -18 1 -23 6 -8 8 -4 9 13 5 13 -4 18 -8 10 -11z"/>
<path d="M2029 3333 c-13 -16 -12 -17 4 -4 9 7 17 15 17 17 0 8 -8 3 -21 -13z"/>
<path d="M1982 3318 c5 -15 28 -23 28 -10 0 5 -7 13 -16 16 -10 4 -14 1 -12
-6z"/>
<path d="M1959 3300 c-1 -8 -1 -18 0 -23 1 -4 -17 -4 -39 -1 -33 5 -40 4 -40
-10 0 -9 -5 -16 -11 -16 -5 0 -8 4 -4 9 3 5 1 12 -5 16 -5 3 -10 1 -10 -4 0
-6 -5 -10 -12 -8 -7 1 -13 -4 -14 -10 -3 -27 -5 -28 -14 -13 -9 13 -10 13 -11
0 -1 -8 -1 -18 0 -22 0 -5 -3 -8 -8 -8 -11 0 -22 -35 -25 -75 -1 -17 -6 -37
-11 -44 -5 -10 -4 -12 3 -7 7 4 12 1 12 -9 0 -9 -4 -14 -9 -11 -5 3 -11 -10
-13 -29 -2 -19 0 -36 4 -37 5 -2 -1 -20 -12 -41 -12 -23 -16 -36 -8 -31 10 6
10 4 -1 -9 -12 -15 -9 -17 38 -16 29 1 55 7 62 15 6 8 18 14 27 14 8 0 23 7
33 16 9 8 26 16 37 17 11 0 19 4 16 8 -2 4 9 10 24 13 96 23 117 25 180 15 37
-6 86 -11 110 -12 23 -1 42 -5 42 -9 0 -5 4 -8 10 -8 5 0 7 7 4 15 -4 8 1 17
10 21 12 5 9 11 -16 34 -17 16 -36 26 -41 23 -6 -3 -7 -1 -4 4 4 6 0 16 -8 23
-12 10 -15 10 -15 0 0 -10 -5 -9 -17 2 -10 9 -36 19 -58 22 -60 10 -76 16 -70
27 4 5 0 16 -9 24 -9 9 -17 11 -21 5 -4 -7 -13 -7 -26 0 -11 6 -17 14 -15 19
3 4 -4 7 -16 7 -14 -1 -22 6 -23 20 -1 16 3 20 17 16 12 -3 18 1 18 11 0 8 4
17 9 19 4 2 5 12 0 23 -7 19 -8 19 -8 -2 -1 -12 -5 -24 -10 -27 -5 -4 -7 4 -5
16 2 13 2 17 -2 10 -4 -8 -11 -6 -25 10 -14 17 -19 19 -20 8z"/>
<path d="M2000 3210 c-9 -6 -10 -10 -3 -10 6 0 15 5 18 10 8 12 4 12 -15 0z"/>
<path d="M3070 3131 c0 -5 10 -16 23 -25 17 -13 18 -16 4 -12 -10 3 -31 7 -45
7 -17 1 -21 3 -9 6 28 7 19 22 -13 21 -16 -1 -30 -5 -30 -10 0 -5 3 -7 8 -5 4
2 15 -4 25 -15 18 -20 0 -27 -20 -7 -5 5 -30 12 -54 14 -24 2 -65 7 -90 10
-32 5 -49 3 -54 -6 -6 -8 -4 -10 6 -4 8 5 5 -2 -6 -14 l-20 -23 -17 22 -18 22
-1 -23 c0 -13 -3 -19 -5 -12 -4 9 -11 9 -29 1 -27 -12 -37 -31 -29 -53 6 -14
8 -14 19 1 11 16 12 16 17 -2 4 -15 13 -19 44 -17 21 0 77 3 123 5 57 2 86 -1
88 -8 2 -7 12 -10 21 -7 10 2 29 -2 44 -10 32 -16 102 -11 94 8 -3 10 5 12 29
11 46 -4 60 6 46 32 -14 25 -64 62 -85 62 -8 0 -20 9 -26 20 -11 20 -40 28
-40 11z"/>
<path d="M2785 3090 c4 -6 11 -8 16 -5 14 9 11 15 -7 15 -8 0 -12 -5 -9 -10z"/>
<path d="M3180 2980 c-23 -7 -23 -8 -3 -9 12 -1 25 4 28 9 3 6 5 10 3 9 -2 -1
-14 -5 -28 -9z"/>
<path d="M2783 2901 c-19 -12 -30 -26 -27 -34 3 -8 -2 -19 -10 -26 -24 -20 6
-43 62 -48 69 -5 72 -6 72 -13 0 -4 21 -3 48 1 49 9 72 29 72 62 0 18 2 18 23
4 12 -8 21 -22 21 -31 -1 -12 8 -16 43 -16 27 0 42 4 38 10 -8 13 1 13 28 0
13 -6 5 4 -16 24 -50 45 -142 76 -242 82 -69 5 -85 2 -112 -15z m177 -66 c0
-8 -4 -15 -10 -15 -5 0 -7 7 -4 15 4 8 8 15 10 15 2 0 4 -7 4 -15z"/>
<path d="M2583 2333 c-34 -6 -28 -18 18 -36 37 -14 41 -14 46 0 6 14 -22 45
-36 42 -3 -1 -16 -4 -28 -6z"/>
<path d="M2901 2078 c-5 -13 -6 -28 -4 -34 7 -18 -82 -42 -176 -47 -46 -3 -88
-10 -94 -16 -10 -10 0 -15 24 -13 188 21 210 21 249 6 26 -11 40 -22 40 -34 0
-30 17 -32 24 -5 4 15 11 23 17 19 16 -10 30 18 17 33 -15 19 -25 16 -32 -9
-7 -30 -25 -12 -28 29 -1 17 -7 31 -12 30 -6 -1 -10 13 -10 31 0 38 -4 40 -15
10z"/>
<path d="M1750 1901 c-13 -25 -13 -34 0 -26 16 10 32 45 21 45 -6 0 -15 -9
-21 -19z"/>
<path d="M2921 1750 c-1 -18 16 -46 23 -40 2 3 -2 16 -9 30 -8 15 -14 19 -14
10z"/>
<path d="M2447 1707 c-4 -15 -12 -25 -17 -22 -5 3 -12 0 -16 -6 -4 -7 -3 -9 2
-6 6 3 16 2 24 -4 13 -7 13 -9 0 -9 -12 -1 -11 -3 3 -11 26 -15 50 12 38 43
-6 14 -10 17 -11 8 -1 -8 -5 -4 -9 10 l-7 25 -7 -28z"/>
<path d="M3621 2717 c-1 -50 3 -76 9 -72 12 7 12 89 0 125 -6 17 -8 1 -9 -53z"/>
<path d="M3510 2399 c0 -11 5 -17 10 -14 6 3 10 13 10 21 0 8 -4 14 -10 14 -5
0 -10 -9 -10 -21z"/>
<path d="M3067 1383 c-4 -3 -7 -11 -7 -17 0 -6 5 -5 12 2 6 6 9 14 7 17 -3 3
-9 2 -12 -2z"/>
<path d="M2985 1230 c-3 -5 -1 -10 4 -10 6 0 11 5 11 10 0 6 -2 10 -4 10 -3 0
-8 -4 -11 -10z"/>
<path d="M2185 1040 c3 -5 11 -10 16 -10 6 0 7 5 4 10 -3 6 -11 10 -16 10 -6
0 -7 -4 -4 -10z"/>
<path d="M2320 990 c8 -5 24 -9 35 -9 l20 0 -20 9 c-11 5 -27 9 -35 9 -13 1
-13 0 0 -9z"/>
</g>
</svg>
