<?xml version="1.0" standalone="no"?>
<!DOCTYPE svg PUBLIC "-//W3C//DTD SVG 20010904//EN"
 "http://www.w3.org/TR/2001/REC-SVG-20010904/DTD/svg10.dtd">
<svg version="1.0" xmlns="http://www.w3.org/2000/svg"
 width="512.000000pt" height="512.000000pt" viewBox="0 0 512.000000 512.000000"
 preserveAspectRatio="xMidYMid meet">
<metadata>
Created by potrace 1.14, written by Peter Selinger 2001-2017
</metadata>
<g transform="translate(0.000000,512.000000) scale(0.100000,-0.100000)"
fill="#000000" stroke="none">
<path d="M0 2560 l0 -2560 2560 0 2560 0 0 2560 0 2560 -2560 0 -2560 0 0
-2560z m3000 2136 c0 -9 12 -14 35 -14 19 0 33 4 30 8 -9 15 13 21 27 7 7 -8
21 -12 32 -9 13 3 17 1 12 -6 -4 -7 -2 -12 3 -12 6 0 11 4 11 10 0 6 10 6 27
-1 19 -7 29 -7 31 0 2 6 8 11 14 11 6 0 7 -7 4 -16 -5 -14 -4 -15 9 -4 8 7 15
9 15 5 0 -4 7 -2 15 5 12 10 18 10 30 0 8 -7 15 -10 15 -7 0 10 193 -73 298
-129 662 -350 1100 -989 1187 -1730 8 -71 15 -175 15 -231 0 -93 -2 -102 -20
-108 -11 -4 -18 -11 -15 -16 7 -10 -8 -13 -18 -3 -14 14 -78 13 -84 -1 -3 -8
-11 -15 -19 -15 -8 0 -14 -7 -14 -15 0 -8 -6 -12 -14 -9 -8 3 -12 13 -9 23 4
15 -4 20 -42 25 -35 6 -51 4 -63 -7 -13 -12 -27 -13 -58 -8 -22 4 -48 7 -56 5
-38 -5 -57 -16 -52 -29 4 -10 -8 -12 -64 -8 -68 5 -105 -8 -62 -22 11 -3 20
-11 20 -16 0 -12 -27 -12 -35 1 -3 5 -12 7 -20 3 -18 -6 -20 8 -3 25 9 9 5 12
-19 12 -17 0 -33 4 -35 9 -2 6 -21 6 -49 1 -26 -5 -99 -9 -163 -9 -98 0 -116
3 -116 16 0 9 -6 13 -15 10 -8 -4 -17 -1 -21 4 -3 6 -15 9 -25 6 -10 -3 -24 2
-31 10 -7 9 -22 13 -39 9 -15 -3 -29 -1 -31 4 -2 5 -19 11 -38 12 -29 2 -35 0
-34 -15 1 -10 -3 -16 -10 -14 -6 3 -10 9 -9 15 4 17 -21 31 -53 31 -81 0 -104
-3 -104 -15 0 -6 -12 -15 -27 -18 -16 -4 -36 -9 -45 -12 -12 -4 -18 0 -18 10
0 9 5 16 10 16 6 0 10 7 10 15 0 21 -66 21 -74 -1 -10 -26 -7 -32 25 -43 20
-7 29 -16 26 -25 -3 -7 -2 -17 2 -22 4 -5 4 -22 0 -39 -3 -16 -7 -24 -8 -17
-2 20 -28 43 -51 45 -11 1 -20 4 -20 8 0 4 -11 6 -25 4 -14 -1 -25 1 -25 5 0
9 -81 2 -155 -15 -61 -14 -82 -12 -55 5 8 6 11 10 6 10 -5 0 -3 7 4 15 6 8 19
13 28 12 10 -1 19 3 22 8 2 6 17 22 32 37 29 28 37 45 16 32 -8 -5 -7 -1 1 10
8 10 17 39 19 64 3 39 12 55 55 103 57 62 77 63 77 2 0 -19 7 -41 15 -49 8 -8
11 -22 8 -32 -6 -16 -5 -16 14 1 31 27 132 236 143 296 6 30 15 60 20 66 6 7
18 37 27 66 21 67 25 386 6 434 -6 17 -24 69 -38 118 -15 48 -30 87 -35 87 -4
0 -6 8 -3 19 5 22 -58 117 -76 114 -6 -2 -10 2 -8 9 3 15 -61 58 -87 58 -12 0
-26 4 -31 8 -6 5 -37 18 -70 29 -164 55 -194 62 -165 42 11 -8 3 -9 -32 -5
-29 3 -50 1 -54 -5 -5 -8 -8 -8 -13 0 -16 25 -231 54 -231 31 0 -7 -7 -10 -15
-6 -26 10 -16 -11 18 -39 l32 -27 -47 26 c-52 29 -94 33 -124 12 -13 -10 -23
-11 -31 -4 -8 6 -18 6 -32 -1 -11 -6 -27 -8 -35 -5 -20 8 -107 -17 -100 -28 3
-4 -13 -11 -35 -14 -23 -4 -38 -10 -36 -14 3 -4 -7 -11 -21 -14 -20 -5 -23
-10 -15 -20 8 -9 2 -16 -24 -26 -19 -7 -32 -17 -29 -21 2 -4 0 -10 -5 -14 -6
-3 -8 -12 -5 -20 3 -7 1 -23 -6 -34 -8 -16 -7 -27 7 -48 10 -15 18 -43 18 -63
0 -31 3 -35 28 -38 19 -2 27 1 27 12 0 9 5 16 11 16 5 0 7 -6 3 -12 -4 -7 6
-1 22 13 34 30 127 89 140 89 5 0 43 13 84 30 84 33 135 38 161 14 9 -8 31
-16 48 -16 17 -1 28 -5 25 -10 -3 -4 -1 -8 5 -8 17 0 81 -61 82 -79 0 -11 3
-9 9 7 5 12 12 22 14 22 3 0 3 -7 -1 -16 -5 -13 -1 -15 18 -10 13 3 19 3 12 0
-7 -3 -9 -12 -6 -20 3 -8 0 -14 -7 -14 -6 0 -9 -4 -6 -9 4 -5 2 -21 -4 -35 -6
-16 -6 -27 0 -31 6 -4 10 -11 10 -18 0 -6 -6 -3 -13 6 -11 15 -15 16 -31 4
-14 -10 -17 -19 -11 -33 4 -10 7 -23 6 -28 -4 -17 11 -46 23 -46 8 0 19 -7 26
-15 7 -8 20 -15 29 -15 10 0 23 -14 31 -36 11 -26 19 -34 32 -31 13 4 18 -1
19 -16 0 -21 1 -21 10 -2 7 15 8 8 6 -27 -1 -25 1 -44 6 -41 4 2 7 15 7 29 0
13 5 24 10 24 6 0 10 6 10 14 0 7 7 19 15 26 12 10 15 9 16 -6 1 -11 1 -25 0
-33 -2 -7 2 -10 8 -6 7 3 11 -3 11 -15 0 -17 -4 -20 -20 -15 -14 4 -20 2 -20
-9 0 -10 6 -13 15 -10 18 7 19 -6 3 -41 -9 -21 -9 -29 3 -41 13 -13 20 -10 55
19 21 19 43 35 47 35 5 1 21 18 37 40 33 46 77 67 123 58 58 -11 97 -77 97
-166 0 -29 5 -50 11 -50 6 0 9 -9 7 -20 -2 -12 -7 -19 -12 -18 -14 4 -27 -52
-20 -88 4 -21 1 -34 -10 -43 -9 -8 -16 -10 -16 -5 0 5 -7 -2 -16 -14 -8 -12
-19 -20 -23 -18 -4 3 -21 -8 -36 -24 -37 -39 -105 -64 -150 -57 -32 5 -37 3
-47 -21 -16 -37 -16 -36 -32 -23 -8 7 -13 22 -10 34 2 11 -4 32 -12 46 -9 13
-18 48 -19 78 -1 42 -6 57 -23 69 -21 15 -22 14 -23 -28 -2 -30 -3 -35 -6 -15
-4 28 -23 38 -23 12 0 -8 -11 -17 -24 -21 -17 -4 -22 -11 -19 -25 7 -26 -6
-24 -17 4 l-9 22 0 -22 c-1 -12 4 -25 9 -28 18 -11 11 -52 -9 -58 -19 -5 -21
-31 -6 -68 3 -10 2 -20 -4 -24 -6 -3 -11 -1 -11 6 0 8 -4 8 -15 -1 -8 -7 -15
-18 -15 -24 0 -6 5 -4 10 4 8 12 10 12 10 -5 0 -15 -7 -20 -25 -20 -14 0 -25
5 -25 12 0 6 -6 18 -13 25 -8 7 -16 20 -20 28 -3 10 -6 6 -7 -10 l-1 -25 -11
25 c-11 26 -12 25 -23 -24 -6 -29 -6 -29 -21 -7 -21 30 -46 28 -40 -4 4 -22 3
-23 -15 -12 -17 10 -23 8 -39 -13 -11 -14 -20 -39 -20 -57 0 -37 -18 -53 -35
-30 -9 12 -9 33 -2 77 9 55 8 64 -10 88 -11 15 -30 28 -41 28 -12 1 -27 6 -34
11 -7 5 -29 8 -48 6 -19 -2 -47 2 -62 8 l-27 11 21 28 c12 17 18 35 14 46 -6
16 -8 16 -26 -1 -15 -14 -35 -17 -112 -15 -116 3 -111 4 -126 -20 -11 -18 -8
-24 21 -53 28 -26 32 -36 23 -49 -8 -13 -7 -26 2 -50 8 -18 15 -40 16 -47 2
-8 8 -17 14 -19 22 -7 14 -35 -8 -29 -24 6 -25 -2 -5 -29 13 -17 14 -17 15 -2
0 10 8 22 18 27 46 24 207 53 296 52 25 0 38 -21 29 -46 -9 -28 -10 -144 0
-138 13 8 -16 -51 -35 -69 -16 -17 -18 -17 -28 0 -9 16 -11 16 -24 0 -16 -22
-38 -24 -30 -3 4 8 2 15 -4 15 -5 0 -13 -12 -17 -27 -5 -20 -8 -24 -15 -13 -7
12 -12 11 -28 -3 -10 -9 -22 -14 -27 -10 -4 5 -5 2 -1 -5 5 -8 -2 -16 -18 -22
-14 -5 -26 -12 -26 -15 0 -4 5 -3 10 0 6 3 10 1 10 -5 0 -7 -8 -9 -19 -5 -11
3 -22 1 -26 -5 -3 -6 -10 -8 -14 -5 -5 2 -16 -4 -26 -15 -10 -11 -21 -17 -26
-15 -13 8 -20 -12 -21 -57 -1 -56 -12 -65 -68 -58 l-47 6 1 -50 c1 -46 3 -51
24 -50 17 0 21 -3 16 -15 -3 -9 -13 -35 -21 -57 -15 -44 -98 -124 -128 -124
-9 0 -14 4 -10 9 3 5 1 12 -5 16 -5 3 -10 25 -10 48 0 38 3 44 30 54 21 8 30
8 30 0 0 -5 3 -8 6 -4 9 9 -6 48 -17 42 -5 -4 -9 5 -9 18 0 35 -11 40 -37 15
-13 -12 -23 -17 -24 -12 0 5 -13 -17 -29 -49 l-29 -59 20 -54 c11 -29 25 -56
30 -60 5 -3 -2 -15 -16 -26 -19 -15 -29 -18 -37 -10 -8 8 -17 8 -30 1 -14 -7
-20 -6 -24 6 -4 9 -2 21 5 28 15 15 14 27 -4 27 -10 0 -15 -11 -15 -35 0 -56
-27 -43 -40 19 -5 26 -10 31 -31 28 l-24 -3 25 22 c22 18 22 21 5 17 -22 -3
-23 19 -3 59 8 17 8 26 -2 38 -7 8 -9 22 -6 31 3 8 3 27 0 41 -6 22 -8 23 -16
9 -5 -9 -18 -16 -29 -16 -16 0 -19 -5 -14 -19 4 -15 -1 -24 -22 -35 -29 -15
-61 -61 -50 -72 3 -4 -6 -22 -20 -40 -18 -24 -31 -33 -44 -29 -22 7 -36 -13
-15 -21 25 -10 19 -24 -10 -24 -25 0 -26 -2 -20 -35 5 -27 3 -37 -9 -41 -10
-4 -15 -20 -15 -50 0 -24 -4 -44 -10 -44 -5 0 -10 -5 -10 -12 0 -19 -31 -47
-46 -41 -9 3 -14 20 -14 45 0 35 -2 39 -15 28 -12 -10 -15 -9 -15 8 0 11 -6
23 -12 25 -7 3 -3 6 10 6 17 1 22 7 22 29 0 18 11 39 29 58 27 28 28 32 20 84
-9 55 -3 120 10 120 4 0 7 -17 5 -37 -2 -47 5 -75 17 -68 15 10 10 109 -7 144
-9 18 -14 33 -13 34 33 21 84 37 87 28 6 -17 34 -13 66 8 28 18 28 19 8 30
-28 15 -47 14 -62 -4 -7 -8 -30 -20 -52 -25 -21 -6 -48 -20 -59 -31 -19 -19
-20 -19 -17 -2 1 10 -5 29 -15 43 -9 13 -17 30 -17 37 0 18 -43 81 -60 88 -21
9 -70 -51 -93 -112 -29 -74 -38 -91 -56 -98 -10 -4 -20 1 -26 11 -19 33 -68
74 -79 65 -42 -32 -98 -1 -92 52 4 32 -16 47 -63 47 -22 0 -36 8 -53 30 -12
16 -30 32 -39 35 -10 3 -21 15 -24 26 -4 10 -10 17 -15 14 -12 -8 -60 13 -60
25 0 7 8 9 19 5 12 -3 21 0 25 11 4 10 12 14 22 10 15 -6 15 -4 0 19 -16 24
-16 25 4 25 12 0 18 5 15 10 -9 15 -31 12 -50 -6 -15 -15 -18 -15 -40 6 -15
14 -41 25 -67 27 -52 5 -63 13 -20 13 18 0 32 5 32 10 0 6 -4 10 -10 10 -5 0
-10 9 -10 20 0 21 -61 55 -93 51 -9 -1 -17 3 -17 8 0 6 -17 11 -37 11 -28 0
-34 -3 -23 -10 8 -5 23 -10 33 -10 10 0 25 -7 33 -15 14 -13 12 -15 -12 -15
-23 0 -25 -2 -14 -15 7 -9 10 -18 7 -21 -3 -3 -27 15 -53 40 -37 36 -43 46
-28 46 18 1 18 1 0 11 -16 10 -18 20 -11 98 31 403 150 762 362 1090 107 165
281 360 443 496 118 98 440 304 440 280 0 -3 7 1 16 9 8 9 20 14 25 11 5 -4 9
-2 9 3 0 14 153 72 185 70 17 -1 37 -8 47 -15 12 -11 18 -12 24 -2 5 8 3 10
-6 4 -9 -5 -11 -4 -6 3 5 8 13 9 24 3 21 -11 50 -6 88 13 26 14 29 14 35 -2 4
-9 4 -21 1 -27 -3 -5 2 -4 12 4 15 13 19 13 26 0 8 -12 11 -11 23 5 10 13 16
15 21 7 5 -8 13 -8 27 -1 13 7 19 7 19 0 0 -5 5 -10 11 -10 5 0 8 4 5 9 -4 5
3 7 13 4 10 -3 29 1 42 8 16 8 24 8 27 1 2 -6 15 -8 28 -6 18 3 23 1 18 -7 -5
-8 -3 -9 7 -4 21 14 60 15 53 3 -4 -7 -2 -8 5 -4 7 4 9 17 6 29 -5 16 -4 18 3
8 6 -8 19 -12 31 -8 14 3 19 1 14 -6 -4 -7 4 -5 17 3 28 17 66 19 63 5 -1 -6
10 -11 24 -12 19 -1 22 1 12 8 -16 10 -8 12 15 3 9 -3 14 -9 12 -13 -3 -4 8
-6 22 -5 15 1 33 3 40 3 7 1 11 5 8 9 -2 4 3 8 12 8 9 0 39 3 65 7 29 4 45 2
42 -3 -4 -6 -1 -10 4 -10 6 0 11 5 11 10 0 6 5 10 11 10 5 0 8 -4 4 -9 -10
-16 12 -21 25 -6 7 8 16 12 21 9 5 -3 9 1 10 8 0 7 4 4 9 -7 5 -11 9 -14 9 -6
1 11 4 11 16 1 12 -10 15 -10 15 1 0 12 2 12 9 0 5 -8 18 -12 30 -8 12 3 21 0
21 -5 0 -6 8 -4 17 3 14 12 15 12 9 0 -6 -8 0 -7 18 4 14 9 23 21 20 26 -3 5
0 9 5 9 6 0 11 -6 11 -14z m-1100 -36 c0 -5 -2 -10 -4 -10 -3 0 -8 5 -11 10
-3 6 -1 10 4 10 6 0 11 -4 11 -10z m40 6 c0 -2 -7 -7 -16 -10 -8 -3 -12 -2 -9
4 6 10 25 14 25 6z m1092 -735 c20 -5 39 -6 42 -4 3 3 15 -3 28 -12 22 -16 21
-16 -32 -10 -30 4 -59 10 -65 13 -5 4 -14 8 -20 9 -5 1 -26 7 -45 12 -34 10
-34 10 10 6 25 -3 62 -9 82 -14z m-215 -433 c-3 -8 -6 -5 -6 6 -1 11 2 17 5
13 3 -3 4 -12 1 -19z m26 -708 c-7 -27 -13 -25 -11 4 1 14 5 23 9 20 4 -2 5
-13 2 -24z m-536 -55 c0 -8 -4 -15 -9 -15 -4 0 -8 7 -8 15 0 8 4 15 8 15 5 0
9 -7 9 -15z m713 -5 c0 -5 -5 -10 -11 -10 -5 0 -7 5 -4 10 3 6 8 10 11 10 2 0
4 -4 4 -10z m-745 -10 c3 -5 -1 -10 -9 -10 -9 0 -16 5 -16 10 0 6 4 10 9 10 6
0 13 -4 16 -10z m570 0 c3 -5 1 -10 -4 -10 -6 0 -11 5 -11 10 0 6 2 10 4 10 3
0 8 -4 11 -10z m-679 -25 c-11 -8 -27 -15 -35 -15 -13 1 -12 4 3 15 11 8 27
15 35 15 13 -1 12 -4 -3 -15z m474 -19 c0 -3 -4 -8 -10 -11 -5 -3 -10 -1 -10
4 0 6 5 11 10 11 6 0 10 -2 10 -4z m54 -8 c-3 -4 -12 -8 -20 -8 -8 0 -14 -5
-14 -12 0 -6 -2 -9 -5 -6 -11 11 7 37 25 35 10 -1 16 -5 14 -9z m161 2 c3 -6
-1 -7 -9 -4 -18 7 -21 14 -7 14 6 0 13 -4 16 -10z m-210 -51 c11 -17 -1 -21
-15 -4 -8 9 -8 15 -2 15 6 0 14 -5 17 -11z m-2315 -120 c0 -6 -4 -7 -10 -4 -5
3 -10 11 -10 16 0 6 5 7 10 4 6 -3 10 -11 10 -16z m228 -137 c31 -33 40 -48
32 -57 -13 -16 -2 -45 16 -45 8 0 14 -4 14 -9 0 -5 18 -32 40 -60 22 -28 40
-53 40 -56 0 -3 -13 -5 -29 -5 -17 0 -33 -5 -37 -12 -4 -6 -3 -8 4 -4 6 3 13
2 17 -4 3 -5 0 -11 -7 -12 -7 0 -17 -2 -23 -3 -5 -2 -17 -4 -25 -5 -8 -1 -3
-5 12 -10 37 -11 68 -2 61 17 -4 9 0 14 8 12 17 -3 69 18 89 36 8 7 30 16 48
20 45 9 43 -16 -5 -52 -21 -15 -43 -34 -49 -42 -8 -10 -22 -12 -53 -7 -37 6
-45 3 -66 -20 -14 -15 -25 -33 -25 -40 0 -7 -24 -37 -52 -67 l-53 -55 -35 29
c-19 16 -38 29 -42 29 -11 0 -10 -42 3 -78 6 -17 9 -37 7 -44 -4 -11 -29 59
-62 169 l-7 22 38 -19 c34 -17 39 -17 44 -2 4 11 8 12 13 4 11 -18 26 -14 26
6 0 24 -26 47 -65 57 -29 8 -35 8 -52 3 -11 -4 -14 6 -30 87 -17 90 -17 91 7
70 14 -13 28 -16 54 -11 41 8 80 -8 72 -30 -6 -16 10 -19 19 -3 13 20 -34 57
-73 58 -20 0 -46 2 -56 4 -29 5 -43 57 -15 57 5 0 9 -9 9 -21 0 -23 24 -21 26
2 1 8 2 20 3 27 0 6 8 12 16 12 8 0 15 5 15 10 0 6 9 10 20 10 11 0 20 -7 20
-15 0 -8 2 -15 4 -15 2 0 12 -3 21 -6 16 -6 16 -5 1 25 -16 29 -15 31 1 32 10
0 5 5 -12 10 -16 5 -35 7 -41 5 -7 -3 -9 5 -6 20 2 14 0 24 -7 24 -6 0 -11 -5
-11 -12 0 -9 -5 -8 -15 2 -17 18 -9 61 10 54 17 -7 28 25 14 45 -6 9 11 -8 38
-38 26 -30 67 -75 91 -99z m20 80 c2 -7 -2 -10 -12 -6 -9 3 -16 11 -16 16 0
13 23 5 28 -10z m3137 -12 c3 -6 2 -10 -4 -10 -5 0 -15 -2 -23 -5 -7 -3 -19
-1 -27 4 -12 8 -12 12 -2 25 13 16 42 9 56 -14z m1085 16 c0 -16 -37 -28 -46
-15 -3 5 4 9 15 9 12 0 21 5 21 10 0 6 2 10 5 10 3 0 5 -6 5 -14z m-363 -26
c3 -11 12 -20 19 -20 8 0 14 -4 14 -10 0 -5 -10 -10 -22 -10 -13 0 -30 -5 -38
-10 -17 -11 7 -13 135 -10 67 1 82 4 94 21 16 22 31 25 31 5 0 -23 12 -26 66
-17 27 5 39 9 27 10 -33 2 -28 18 7 23 29 4 30 3 30 -32 0 -21 -3 -51 -6 -67
-5 -26 -9 -29 -37 -25 -32 3 -32 3 -8 -10 32 -17 37 -34 11 -41 -14 -3 -20
-13 -20 -31 0 -29 -11 -33 -30 -11 -7 8 -21 15 -32 15 -11 0 -36 14 -55 30
-18 17 -27 30 -19 30 7 0 26 6 40 14 26 13 25 14 -51 38 -68 22 -87 24 -141
17 -48 -7 -71 -5 -98 6 -30 12 -34 17 -22 28 13 13 66 32 81 29 14 -4 7 19 -9
25 -13 5 -13 7 -2 14 21 13 29 11 35 -11z m33 4 c0 -8 -5 -12 -10 -9 -6 4 -8
11 -5 16 9 14 15 11 15 -7z m115 6 c-3 -5 -15 -10 -26 -10 -11 0 -17 5 -14 10
3 6 15 10 26 10 11 0 17 -4 14 -10z m-1209 -18 c-10 -2 -22 0 -28 6 -6 6 0 7
19 4 21 -5 23 -7 9 -10z m-2783 -3 c20 -5 37 -14 37 -19 0 -13 -37 -13 -45 0
-3 6 -15 10 -25 10 -10 0 -22 5 -25 10 -8 13 10 13 58 -1z m2837 -4 c7 -9 10
-18 6 -22 -3 -3 -6 -1 -6 6 0 7 -4 10 -9 7 -5 -3 -11 1 -15 9 -7 19 8 19 24 0z
m-73 -37 c-20 -13 -33 -9 -33 10 0 15 4 16 22 8 15 -7 19 -13 11 -18z m933 12
c0 -5 -4 -10 -10 -10 -5 0 -10 5 -10 10 0 6 5 10 10 10 6 0 10 -4 10 -10z
m-1035 -46 c-59 -23 -79 -24 -35 -1 25 12 49 21 55 18 5 -3 -4 -10 -20 -17z
m235 -18 c0 -6 -7 -1 -15 10 -8 10 -15 23 -15 28 0 6 7 1 15 -10 8 -10 15 -23
15 -28z m210 34 c10 0 25 -6 32 -14 20 -19 71 -29 158 -30 63 -1 75 -4 78 -18
3 -15 -4 -18 -40 -19 l-43 -1 33 -9 c34 -10 44 -30 15 -28 -21 1 -93 27 -78
28 5 1 0 8 -12 16 -15 10 -29 12 -45 7 -16 -6 -44 -1 -88 14 -57 19 -61 22
-32 23 18 1 31 5 28 9 -3 5 -19 7 -36 4 -16 -2 -30 0 -30 5 0 16 13 24 28 18
7 -3 22 -5 32 -5z m575 -2 c12 -12 -44 -37 -74 -33 -39 5 -51 12 -51 30 0 10
15 13 60 11 33 -2 62 -5 65 -8z m-390 -8 c3 -5 1 -10 -4 -10 -6 0 -11 5 -11
10 0 6 2 10 4 10 3 0 8 -4 11 -10z m155 -5 c-8 -10 -18 -12 -29 -6 -9 5 -23
11 -31 14 -8 3 5 6 29 6 37 1 42 -1 31 -14z m-610 -37 c0 -10 -22 -15 -47 -10
-35 7 -27 17 12 17 19 0 35 -3 35 -7z m871 -20 c22 -6 39 -15 39 -19 0 -8 42
-29 84 -43 16 -5 17 -4 6 9 -7 8 -20 15 -30 15 -10 0 -24 7 -31 16 -12 15 -11
16 11 9 14 -4 36 -13 50 -21 14 -7 33 -16 43 -20 10 -4 16 -12 14 -18 -5 -14
-43 -20 -65 -10 -9 4 -37 9 -62 10 -168 9 -209 12 -219 18 -14 9 -48 17 -89
21 -46 4 -49 11 -10 24 39 13 115 9 143 -6 11 -6 38 -14 60 -17 37 -6 38 -5
15 6 -34 16 -33 15 -25 27 8 14 19 14 66 -1z m-3580 -25 c13 -16 12 -17 -3 -4
-10 7 -18 15 -18 17 0 8 8 3 21 -13z m3789 7 c0 -5 -2 -10 -4 -10 -3 0 -8 5
-11 10 -3 6 -1 10 4 10 6 0 11 -4 11 -10z m-947 -130 c-4 -25 -6 -66 -5 -91 2
-30 -3 -50 -12 -58 -11 -9 -15 -6 -19 14 -3 20 -1 25 11 20 11 -4 12 -2 5 7
-6 7 -8 22 -6 33 3 11 6 47 8 80 2 33 4 62 5 65 0 3 5 -2 10 -10 6 -8 7 -35 3
-60z m752 50 c3 -5 2 -10 -4 -10 -5 0 -13 5 -16 10 -3 6 -2 10 4 10 5 0 13 -4
16 -10z m-3583 -25 c0 -5 -5 -11 -11 -13 -6 -2 -11 4 -11 13 0 9 5 15 11 13 6
-2 11 -8 11 -13z m467 -105 c5 -25 9 -36 10 -25 1 11 7 37 15 59 14 40 25 36
31 -12 2 -15 7 -40 11 -55 5 -23 3 -29 -15 -34 -14 -4 -21 -13 -21 -30 0 -18
-4 -24 -15 -19 -11 4 -15 -2 -15 -27 0 -18 -6 -41 -13 -50 -13 -19 -15 -91 -3
-144 5 -20 4 -33 -2 -33 -5 0 -12 14 -15 30 -5 23 -12 30 -29 30 -22 0 -23 4
-23 69 0 38 3 73 8 77 4 4 7 23 7 42 0 26 -3 33 -15 28 -22 -8 -19 21 5 51 11
14 20 39 20 54 0 21 5 29 18 30 16 1 16 2 -1 6 -9 2 -15 9 -11 14 3 5 10 7 15
4 5 -4 10 9 10 27 l1 33 10 -40 c5 -22 13 -60 17 -85z m2331 86 l0 -33 -45 10
-46 11 29 12 c16 7 33 17 36 23 14 21 26 11 26 -23z m886 27 c-3 -4 -13 -8
-20 -9 -8 -1 -28 -11 -45 -23 -84 -57 -96 -62 -51 -22 25 22 50 44 55 50 6 5
23 10 39 11 16 0 26 -3 22 -7z m-120 -22 c-7 -11 -56 -21 -56 -11 0 13 13 20
37 20 13 0 22 -4 19 -9z m-3006 -21 c0 -5 -4 -10 -10 -10 -5 0 -10 5 -10 10 0
6 5 10 10 10 6 0 10 -4 10 -10z m3180 -10 c0 -5 -4 -10 -10 -10 -5 0 -10 5
-10 10 0 6 5 10 10 10 6 0 10 -4 10 -10z m-3460 -30 c39 -39 41 -113 2 -118
-20 -3 -23 0 -20 20 2 17 -2 24 -19 26 -32 5 -30 -20 7 -84 16 -30 29 -64 28
-78 -1 -13 4 -36 11 -49 10 -19 11 -35 3 -64 -9 -35 -10 -35 -11 -9 -1 23 -5
27 -21 23 -15 -4 -20 0 -20 15 0 17 3 18 15 8 13 -10 15 -9 15 9 0 11 -4 21
-10 21 -5 0 -10 11 -10 24 0 33 -16 41 -30 16 -17 -31 -36 -10 -45 48 -4 26
-12 50 -18 55 -8 4 -9 10 -2 15 13 9 37 70 40 100 3 43 51 56 85 22z m102 -62
c-7 -7 -12 -8 -12 -2 0 14 12 26 19 19 2 -3 -1 -11 -7 -17z m768 6 c0 -8 -5
-12 -10 -9 -6 4 -8 11 -5 16 9 14 15 11 15 -7z m-50 -8 c0 -3 -4 -8 -10 -11
-5 -3 -10 -1 -10 4 0 6 5 11 10 11 6 0 10 -2 10 -4z m2345 -6 c-3 -5 -11 -10
-16 -10 -6 0 -7 5 -4 10 3 6 11 10 16 10 6 0 7 -4 4 -10z m-515 -26 c0 -2 -9
-4 -21 -4 -11 0 -18 4 -14 10 5 8 35 3 35 -6z m1060 -36 c0 -7 -3 -23 -6 -36
-5 -18 -9 -20 -20 -11 -11 9 -22 8 -46 -4 -17 -8 -37 -13 -44 -10 -6 2 -15 0
-18 -6 -4 -6 -13 -8 -20 -5 -8 3 -20 -3 -27 -13 -20 -28 -47 -35 -52 -15 -3
12 -9 7 -20 -19 -9 -19 -22 -41 -30 -48 -12 -9 -16 -7 -21 15 -4 15 -2 32 3
37 8 8 11 6 11 -6 0 -27 15 -20 18 8 2 27 -4 30 -41 16 -20 -8 -23 -15 -21
-43 2 -18 1 -25 -2 -15 -5 14 -44 26 -44 13 0 -2 -3 -12 -7 -22 -4 -12 -3 -15
5 -10 7 4 12 4 12 0 0 -11 -32 -44 -43 -44 -5 0 -18 -11 -28 -25 -11 -13 -26
-22 -33 -19 -8 3 -17 1 -21 -5 -3 -6 -1 -11 6 -11 7 0 5 -8 -6 -20 -10 -11
-21 -20 -26 -20 -4 0 -5 9 -2 20 6 22 -12 27 -37 9 -12 -8 -10 -9 9 -4 17 5
22 4 19 -6 -3 -8 -16 -14 -29 -14 -21 0 -49 -16 -49 -28 0 -3 7 -8 17 -11 10
-4 25 2 38 14 14 13 25 17 29 11 4 -5 -3 -15 -14 -21 -11 -6 -18 -15 -15 -19
2 -5 44 -29 92 -54 124 -63 182 -98 157 -95 -11 2 -37 -6 -56 -16 -28 -15 -39
-17 -49 -7 -59 49 -107 81 -126 81 -12 0 -51 15 -85 34 -35 19 -80 38 -100 41
-21 4 -35 11 -32 16 3 5 1 9 -3 9 -5 0 -14 -12 -19 -27 l-10 -28 -17 36 c-27
55 -74 97 -148 132 -38 18 -69 38 -69 46 0 9 7 11 23 7 12 -4 61 -15 108 -26
47 -11 94 -23 103 -26 12 -5 26 3 44 25 15 18 38 33 52 35 14 1 31 6 38 10 7
4 12 2 12 -3 0 -6 5 -11 10 -11 6 0 10 8 10 18 0 10 3 21 6 25 8 8 34 -18 34
-34 0 -10 3 -10 11 -2 6 6 18 9 25 6 10 -4 12 0 7 12 -4 12 0 23 12 31 22 17
35 18 35 4 0 -5 -6 -10 -14 -10 -24 0 -31 -22 -12 -36 14 -10 16 -20 11 -46
-7 -30 -6 -31 9 -18 14 11 19 11 26 1 10 -17 22 2 14 22 -3 8 -1 18 5 21 6 4
8 12 5 19 -3 8 7 26 21 41 14 15 25 30 25 34 0 7 21 16 160 69 54 21 125 34
223 42 9 0 17 -5 17 -11z m-760 -20 c0 -13 -23 -5 -28 10 -2 7 2 10 12 6 9 -3
16 -11 16 -16z m-3360 -13 c0 -8 -4 -15 -10 -15 -5 0 -10 7 -10 15 0 8 5 15
10 15 6 0 10 -7 10 -15z m1383 -43 l18 -31 -58 -42 c-32 -24 -77 -61 -100 -83
-46 -43 -55 -41 -22 5 14 20 16 29 7 29 -7 0 -2 7 10 16 12 8 22 22 22 30 0 8
7 14 15 14 15 0 38 34 29 43 -3 3 6 13 20 22 14 10 23 22 20 27 -4 6 -1 9 7 6
8 -3 22 -19 32 -36z m-753 8 c0 -5 -4 -10 -10 -10 -5 0 -10 5 -10 10 0 6 5 10
10 10 6 0 10 -4 10 -10z m3458 -41 c-6 -19 -15 -28 -24 -25 -7 3 -16 1 -20 -5
-4 -7 -10 -6 -18 0 -7 6 -16 8 -19 4 -4 -3 -7 -2 -7 4 0 14 19 28 55 41 44 15
45 15 33 -19z m-4185 0 c6 -24 -1 -49 -14 -49 -5 0 -9 16 -9 35 0 38 14 47 23
14z m321 0 c-3 -5 -10 -7 -15 -3 -5 3 -7 10 -3 15 3 5 10 7 15 3 5 -3 7 -10 3
-15z m46 1 c0 -4 -6 -10 -14 -13 -10 -4 -12 0 -9 14 5 18 23 18 23 -1z m-110
-16 c0 -8 -6 -14 -14 -14 -12 0 -14 10 -7 38 3 10 21 -11 21 -24z m874 -8 c15
-13 26 -30 26 -38 0 -14 -47 -65 -53 -57 -17 24 -25 62 -17 83 5 13 6 27 3 30
-4 3 -1 6 5 6 6 0 22 -11 36 -24z m2631 -3 c-5 -10 -10 -33 -13 -50 -2 -18 -8
-33 -13 -33 -5 0 -7 11 -4 25 3 14 7 36 10 50 3 14 10 25 16 25 7 0 8 -7 4
-17z m-3406 -58 c1 -17 -1 -17 -9 -5 -5 8 -9 26 -9 40 0 23 1 23 9 5 5 -11 9
-29 9 -40z m2736 35 c-8 -13 8 -13 22 1 7 7 20 8 34 3 13 -4 28 -7 32 -6 4 1
-3 -12 -15 -29 -16 -23 -19 -33 -10 -36 6 -3 12 -12 12 -21 0 -15 2 -15 11 -2
8 11 12 12 16 3 2 -7 16 -13 30 -13 13 0 48 -17 77 -38 43 -30 52 -41 46 -57
-6 -16 -2 -21 19 -25 25 -5 26 -8 26 -75 0 -107 -44 -438 -73 -548 -6 -22 -20
-49 -31 -61 -12 -12 -21 -29 -21 -37 0 -12 -2 -12 -10 1 -7 10 -12 12 -17 4
-13 -18 -55 -37 -62 -27 -5 8 -14 9 -48 5 -24 -3 -13 -22 11 -22 14 0 28 -5
31 -11 4 -6 13 -8 19 -6 7 3 19 1 26 -3 10 -6 7 -10 -13 -15 -15 -4 -24 -11
-21 -16 3 -5 10 -7 15 -4 19 12 8 -18 -13 -35 -14 -12 -32 -17 -45 -13 -16 4
-23 1 -23 -10 0 -8 5 -17 10 -19 6 -2 -16 -4 -47 -4 -32 -1 -72 -5 -90 -9 -26
-6 -33 -3 -42 14 -9 16 -9 21 2 21 7 0 18 -5 25 -12 9 -9 12 -3 12 30 0 24 7
59 15 79 8 20 12 39 9 42 -4 3 -9 0 -11 -6 -3 -7 -12 -13 -20 -13 -9 0 -13 -6
-10 -14 6 -15 -29 -33 -40 -22 -4 3 1 6 10 6 10 0 17 4 17 10 0 5 -3 9 -7 8
-5 -1 -23 4 -41 12 -26 12 -32 19 -28 36 5 18 0 23 -22 27 -27 5 -42 -6 -42
-30 0 -7 9 -13 19 -13 11 0 23 -5 27 -11 4 -7 0 -9 -12 -5 -39 12 -126 26
-134 21 -17 -10 -32 -77 -26 -111 5 -25 12 -34 26 -34 11 0 20 -4 20 -10 0
-20 -44 -9 -72 16 -28 28 -76 38 -99 22 -9 -6 0 -8 28 -6 23 1 45 -1 49 -4 13
-14 -44 -18 -146 -10 l-105 7 2 72 c3 67 2 71 -17 66 -11 -3 -20 -8 -20 -12 0
-4 -9 -7 -20 -7 -24 0 -24 0 -4 20 8 9 28 16 44 16 16 0 30 7 34 16 5 14 17
15 79 9 l74 -6 13 86 13 86 36 -3 c33 -3 35 -5 36 -38 0 -30 4 -35 27 -38 24
-3 27 1 30 30 3 29 6 33 28 30 42 -6 44 -17 16 -92 -29 -80 -29 -80 -17 -80 4
0 21 34 36 75 28 79 55 100 55 45 0 -23 6 -33 23 -39 19 -7 24 -4 35 28 7 20
12 57 10 84 -2 26 1 48 6 50 5 2 4 13 -3 24 -15 30 -14 140 3 196 8 26 11 47
6 47 -4 0 -3 21 2 48 6 26 10 52 11 59 0 7 3 10 6 8 4 -2 7 13 7 33 1 20 7 51
14 67 7 17 14 39 16 50 3 26 33 95 40 95 3 0 2 -5 -2 -12 -4 -7 -3 -8 4 -4 6
4 9 12 6 19 -2 7 12 22 33 35 43 25 46 26 38 12z m1065 -14 c0 -8 -9 -12 -22
-11 -33 4 -34 4 -13 19 22 15 35 12 35 -8z m-4095 -25 c-7 -32 -25 -43 -25
-15 0 19 20 57 27 51 3 -3 2 -19 -2 -36z m1518 -7 c-3 -8 0 -14 6 -14 6 0 11
-4 11 -9 0 -5 -10 -7 -21 -4 -20 6 -21 3 -15 -33 10 -56 14 -91 9 -76 -6 16
-25 11 -31 -8 -3 -7 0 -10 7 -6 19 12 0 -57 -23 -83 -11 -13 -15 -21 -7 -16
11 6 13 4 8 -11 -7 -18 -7 -18 8 0 8 11 15 15 15 9 0 -5 -9 -18 -19 -27 -14
-12 -19 -31 -19 -64 -1 -26 -5 -60 -11 -75 -12 -31 -22 -36 -14 -7 4 13 0 20
-10 20 -9 0 -15 -9 -15 -22 -1 -40 -9 -88 -16 -96 -4 -4 -6 33 -3 82 2 48 8
91 13 94 5 4 16 16 24 26 14 18 13 19 -2 13 -22 -8 -23 2 -2 31 8 12 11 22 6
22 -9 0 9 168 21 187 4 7 15 9 25 6 13 -4 13 -2 -3 10 -11 9 -15 17 -9 17 6 0
16 18 23 41 12 39 13 40 31 24 10 -9 16 -23 13 -31z m-553 -4 c0 -11 -4 -20
-10 -20 -5 0 -10 9 -10 20 0 11 5 20 10 20 6 0 10 -9 10 -20z m389 -117 c-10
-76 -21 -180 -25 -230 -4 -58 -11 -93 -18 -93 -6 0 -23 -11 -38 -25 -15 -14
-33 -24 -40 -23 -6 2 -15 -10 -19 -27 -14 -63 -9 77 7 177 9 55 13 102 10 106
-3 3 -6 -3 -6 -14 -1 -10 -9 -37 -20 -59 -10 -22 -16 -43 -14 -47 2 -3 0 -9
-6 -13 -5 -3 -10 -18 -10 -33 0 -15 -9 -35 -20 -45 -15 -13 -18 -24 -13 -49 3
-18 10 -39 16 -46 5 -6 7 -25 4 -41 -3 -16 -3 -31 0 -35 12 -12 12 -61 -1 -81
-7 -12 -10 -30 -5 -45 6 -25 7 -25 19 8 9 25 15 30 21 20 7 -10 9 -9 9 5 0 9
-5 17 -11 17 -5 0 -7 5 -3 11 4 8 9 7 16 -2 7 -10 8 -4 4 16 -5 22 -4 26 4 15
8 -13 10 -12 10 4 0 11 3 17 6 13 3 -3 -1 -28 -11 -56 -18 -56 -13 -75 17 -66
14 5 21 1 25 -14 3 -12 10 -21 16 -21 6 0 7 -3 4 -6 -4 -4 -18 1 -31 10 -25
16 -25 16 -17 -8 5 -13 6 -27 2 -32 -14 -16 -20 -81 -8 -93 8 -8 6 -11 -7 -11
-9 0 -25 7 -33 16 -9 9 -26 14 -39 11 -20 -3 -21 -1 -13 20 14 39 10 41 -11 6
-11 -18 -22 -33 -26 -33 -3 0 -28 11 -56 25 -27 13 -46 21 -43 16 9 -16 -13
-61 -28 -55 -12 4 -11 17 9 72 12 37 43 137 68 222 54 184 161 496 177 516 17
21 29 6 18 -23 -5 -14 -7 -28 -5 -30 3 -3 13 22 23 55 15 50 26 67 63 96 25
19 45 35 46 35 0 1 -8 -61 -17 -136z m-119 117 c-8 -5 -24 -9 -35 -9 -16 1
-16 2 5 9 35 11 48 11 30 0z m-1195 -30 c-6 -9 -9 -9 -16 1 -10 17 0 34 13 21
6 -6 7 -16 3 -22z m445 20 c0 -5 -2 -10 -4 -10 -3 0 -8 5 -11 10 -3 6 -1 10 4
10 6 0 11 -4 11 -10z m683 -7 c-7 -2 -21 -2 -30 0 -10 3 -4 5 12 5 17 0 24 -2
18 -5z m-1173 -63 c-12 -22 -30 -19 -30 5 0 9 6 12 15 9 11 -4 15 1 16 17 1
17 3 19 6 7 2 -9 -1 -26 -7 -38z m359 13 l19 -38 15 35 15 35 11 -27 c6 -16
17 -28 25 -28 10 0 14 -10 14 -30 -1 -19 -6 -30 -16 -30 -9 0 -13 -7 -9 -20 4
-17 2 -18 -15 -9 -15 8 -18 17 -13 38 5 22 2 27 -13 27 -17 0 -18 -6 -14 -46
2 -25 10 -72 18 -104 11 -49 11 -66 0 -97 -8 -21 -10 -43 -5 -51 15 -22 10
-38 -11 -38 -17 0 -19 3 -11 18 10 20 5 58 -11 79 -16 20 -19 73 -4 73 18 0
12 105 -9 156 -14 34 -21 94 -10 94 2 0 13 -17 24 -37z m721 27 c-8 -5 -19
-10 -25 -10 -5 0 -3 5 5 10 8 5 20 10 25 10 6 0 3 -5 -5 -10z m-560 -36 c0
-17 12 -18 27 -3 9 9 16 2 27 -26 16 -37 20 -55 12 -55 -13 0 -86 81 -86 95 0
9 5 13 10 10 6 -3 10 -13 10 -21z m515 17 c-13 -12 -85 -42 -85 -35 0 4 77 41
90 43 2 1 0 -3 -5 -8z m-718 -38 c-3 -10 -5 -4 -5 12 0 17 2 24 5 18 2 -7 2
-21 0 -30z m-133 11 c5 -14 4 -15 -9 -4 -17 14 -19 20 -6 20 5 0 12 -7 15 -16z
m-64 -119 c1 -5 2 -21 1 -35 -1 -19 -3 -22 -10 -11 -7 12 -13 7 -27 -22 -20
-42 -30 -46 -39 -18 -8 27 -3 111 7 111 4 0 8 8 8 17 0 9 10 32 23 50 l22 33
7 -58 c3 -31 7 -61 8 -67z m554 50 c6 -30 5 -37 -4 -29 -6 6 -14 31 -16 55 -6
54 10 33 20 -26z m-617 30 c-4 -8 -11 -15 -17 -15 -7 0 -7 6 0 21 13 23 26 19
17 -6z m243 -88 c9 -65 9 -92 1 -100 -12 -12 -12 -13 -16 28 -1 17 -5 38 -10
48 -4 9 -5 24 -1 32 3 8 1 26 -4 39 -10 28 -1 76 10 55 4 -8 13 -54 20 -102z
m625 103 c-3 -5 -12 -10 -18 -10 -7 0 -6 4 3 10 19 12 23 12 15 0z m-918 -22
c-3 -8 -6 -5 -6 6 -1 11 2 17 5 13 3 -3 4 -12 1 -19z m200 -8 c3 -17 10 -33
14 -36 5 -3 9 -12 9 -20 0 -11 -4 -12 -18 -3 -13 8 -17 20 -14 42 3 20 1 28
-7 23 -6 -4 -11 -1 -11 8 0 28 20 17 27 -14z m593 6 c0 -11 -19 -15 -25 -6 -3
5 1 10 9 10 9 0 16 -2 16 -4z m-54 -23 c16 -21 18 -37 4 -28 -13 8 -33 45 -24
45 4 0 13 -8 20 -17z m2964 -28 c-7 -9 -15 -13 -17 -11 -7 7 7 26 19 26 6 0 6
-6 -2 -15z m-2910 -10 c0 -8 -4 -15 -10 -15 -5 0 -10 7 -10 15 0 8 5 15 10 15
6 0 10 -7 10 -15z m-383 -27 c-3 -7 -5 -2 -5 12 0 14 2 19 5 13 2 -7 2 -19 0
-25z m-158 -45 c-1 -4 3 -21 9 -36 24 -58 7 -64 -32 -13 -29 39 -31 48 -15 78
l11 20 14 -20 c8 -12 14 -25 13 -29z m406 10 c19 -20 35 -44 35 -54 0 -10 5
-21 10 -24 18 -11 11 -25 -12 -22 -12 1 -37 19 -56 40 -33 35 -34 38 -17 51
13 9 15 15 7 20 -12 7 -17 26 -7 26 2 0 20 -16 40 -37z m-205 18 c0 -6 -4 -13
-10 -16 -5 -3 -10 1 -10 9 0 9 5 16 10 16 6 0 10 -4 10 -9z m110 -1 c0 -5 -4
-10 -10 -10 -5 0 -10 5 -10 10 0 6 5 10 10 10 6 0 10 -4 10 -10z m172 -53 c-4
-17 -5 -17 -18 0 -7 10 -8 20 -3 21 5 2 9 11 10 20 0 14 2 13 8 -3 4 -11 6
-28 3 -38z m-255 12 c7 -18 10 -37 6 -42 -4 -6 0 -8 10 -4 13 5 21 -2 31 -26
l14 -32 1 32 c1 17 -5 34 -11 36 -7 3 -3 6 9 6 13 1 29 -9 39 -24 15 -24 17
-24 42 -7 18 12 24 13 18 3 -6 -9 -2 -19 13 -30 29 -22 19 -55 -15 -47 -22 6
-23 4 -18 -24 5 -23 3 -30 -10 -30 -9 0 -16 5 -16 10 0 6 -7 10 -16 10 -8 0
-13 4 -9 9 3 5 1 12 -4 15 -5 3 -12 -1 -15 -10 -6 -15 -8 -15 -26 1 -11 10
-20 27 -20 37 0 14 -6 18 -21 16 -19 -3 -21 2 -24 65 -3 73 4 84 22 36z m3158
3 c-3 -3 -11 0 -18 7 -9 10 -8 11 6 5 10 -3 15 -9 12 -12z m222 -69 c0 -14 -2
-22 -5 -16 -4 5 -16 13 -27 17 -16 6 -17 9 -5 16 25 16 35 11 37 -17z m-359
10 c-10 -2 -26 -2 -35 0 -10 3 -2 5 17 5 19 0 27 -2 18 -5z m357 -48 c11 -4
15 -9 9 -12 -14 -5 -84 35 -84 49 0 5 12 1 28 -10 15 -10 36 -22 47 -27z
m-3668 3 c-3 -8 -6 -5 -6 6 -1 11 2 17 5 13 3 -3 4 -12 1 -19z m500 -20 c-3
-7 -5 -2 -5 12 0 14 2 19 5 13 2 -7 2 -19 0 -25z m-497 -28 c0 -11 -2 -20 -4
-20 -2 0 -6 9 -9 20 -3 11 -1 20 4 20 5 0 9 -9 9 -20z m146 -27 c-4 -4 -11 -1
-16 7 -16 25 -11 35 7 17 9 -9 13 -20 9 -24z m304 -43 c13 -8 11 -20 -13 -87
-16 -43 -45 -128 -64 -190 l-36 -112 -66 60 c-74 68 -181 186 -248 271 l-44
58 191 -1 c105 0 194 2 197 5 10 9 66 7 83 -4z m737 -52 c-3 -8 -6 -5 -6 6 -1
11 2 17 5 13 3 -3 4 -12 1 -19z m-56 -123 c-5 -5 -11 -23 -15 -39 -12 -48 -15
-24 -4 28 7 33 13 44 19 35 4 -7 4 -18 0 -24z m139 -82 c-34 -11 -59 -27 -65
-41 -4 -10 0 -13 12 -8 14 5 14 3 -2 -9 -11 -8 -29 -22 -39 -32 -11 -10 -17
-13 -14 -8 12 23 21 51 23 68 3 25 23 37 65 36 19 0 28 -3 20 -6z m77 -9 c-3
-3 -12 -4 -19 -1 -8 3 -5 6 6 6 11 1 17 -2 13 -5z m73 2 c0 -3 -4 -8 -10 -11
-5 -3 -10 -1 -10 4 0 6 5 11 10 11 6 0 10 -2 10 -4z m-360 -75 c0 -6 -4 -13
-10 -16 -5 -3 -10 1 -10 9 0 9 5 16 10 16 6 0 10 -4 10 -9z m653 2 c-13 -2
-33 -2 -45 0 -13 2 -3 4 22 4 25 0 35 -2 23 -4z m110 -10 c-13 -2 -33 -2 -45
0 -13 2 -3 4 22 4 25 0 35 -2 23 -4z m120 -10 c-13 -2 -35 -2 -50 0 -16 2 -5
4 22 4 28 0 40 -2 28 -4z m135 -9 c-4 -3 -12 -6 -20 -8 -7 -1 -19 -6 -27 -11
-10 -5 -16 -4 -19 3 -2 7 -8 10 -13 6 -5 -3 -9 0 -9 5 0 6 20 11 47 11 25 0
44 -3 41 -6z m-1178 -71 c0 -2 -9 1 -20 7 -11 6 -25 8 -30 5 -5 -3 -7 1 -4 9
5 14 9 13 30 -1 13 -8 24 -17 24 -20z m1143 30 c-7 -2 -19 -2 -25 0 -7 3 -2 5
12 5 14 0 19 -2 13 -5z m-1096 -35 c-3 -8 -6 -5 -6 6 -1 11 2 17 5 13 3 -3 4
-12 1 -19z m874 -2 c5 3 9 1 9 -4 0 -5 -11 -9 -25 -9 -14 0 -25 3 -25 7 0 12
24 19 28 8 2 -4 8 -6 13 -2z m26 -23 c-3 -10 -5 -4 -5 12 0 17 2 24 5 18 2 -7
2 -21 0 -30z m-1067 12 c0 -8 -4 -15 -10 -15 -5 0 -14 -15 -19 -32 -5 -18 -10
-26 -10 -17 -1 24 20 79 30 79 5 0 9 -7 9 -15z m131 -8 c-6 -8 -7 -18 -3 -23
4 -4 -1 -2 -10 5 -19 14 -25 26 -9 16 5 -3 12 -1 16 5 3 5 9 10 12 10 3 0 0
-6 -6 -13z m1019 3 c0 -12 -37 -14 -44 -2 -2 4 6 9 20 10 13 1 24 -3 24 -8z
m667 -32 c-3 -8 -6 -5 -6 6 -1 11 2 17 5 13 3 -3 4 -12 1 -19z m110 -20 c-7
-4 -19 -7 -27 -7 -11 0 -11 2 -2 6 10 4 10 8 2 18 -10 11 -7 12 14 2 16 -8 21
-14 13 -19z m-210 -4 c-3 -3 -12 -4 -19 -1 -8 3 -5 6 6 6 11 1 17 -2 13 -5z
m26 -21 c-7 -2 -19 -2 -25 0 -7 3 -2 5 12 5 14 0 19 -2 13 -5z m443 -31 c-17
-16 -18 -16 -5 5 7 12 15 20 18 17 3 -2 -3 -12 -13 -22z m-57 -9 c-8 -9 -9
-14 -3 -10 7 4 18 -1 25 -10 12 -15 12 -16 -4 -10 -10 4 -31 7 -45 8 -16 0
-21 3 -12 6 8 3 19 12 23 19 4 8 13 14 19 14 6 0 5 -7 -3 -17z m-59 -27 c0
-14 -4 -28 -10 -31 -6 -4 -10 7 -10 24 0 17 5 31 10 31 6 0 10 -11 10 -24z
m-2021 -27 c27 -20 40 -37 37 -46 -3 -8 -6 -21 -6 -29 0 -8 -5 -14 -11 -14 -6
0 -9 9 -6 19 3 15 -5 27 -34 45 -47 31 -45 31 -54 4 -3 -13 -8 -18 -11 -12 -7
17 14 64 29 64 7 0 32 -14 56 -31z m1977 -15 c3 -13 11 -24 18 -24 6 0 -2 -7
-18 -15 -33 -18 -39 -19 -31 -5 3 6 0 10 -7 11 -7 1 -2 5 12 9 23 7 23 8 4 9
-20 1 -39 33 -27 44 11 12 44 -8 49 -29z m-74 -43 c2 -17 1 -28 -4 -25 -8 5
-12 54 -4 54 2 0 6 -13 8 -29z"/>
<path d="M2693 4665 c0 -8 4 -15 9 -15 4 0 8 4 8 9 0 6 -4 12 -8 15 -5 3 -9
-1 -9 -9z"/>
<path d="M2113 4623 c9 -2 23 -2 30 0 6 3 -1 5 -18 5 -16 0 -22 -2 -12 -5z"/>
<path d="M2012 4596 c7 -8 15 -11 18 -7 3 3 9 9 14 14 5 4 -3 7 -18 7 -22 0
-25 -2 -14 -14z"/>
<path d="M1905 4570 c-3 -6 1 -7 9 -4 18 7 21 14 7 14 -6 0 -13 -4 -16 -10z"/>
<path d="M2382 3385 c-24 -7 -66 -16 -93 -20 -40 -6 -53 -12 -61 -31 -6 -13
-15 -24 -20 -24 -5 0 -8 -23 -7 -51 2 -40 8 -54 27 -70 15 -11 33 -17 44 -14
10 4 18 1 18 -5 0 -7 7 -10 15 -6 8 3 15 1 15 -4 0 -11 29 -2 51 16 22 20 74
28 96 15 17 -10 17 -10 -1 -11 -15 0 -17 -3 -9 -11 8 -8 31 -6 84 6 105 24
111 28 52 35 -61 6 -82 20 -32 20 66 0 66 12 -2 84 -40 40 -74 67 -89 69 -14
1 -29 5 -35 9 -5 3 -29 0 -53 -7z m87 -106 c17 -6 31 -15 31 -19 0 -5 6 -10
13 -13 6 -2 3 -3 -8 -1 -11 2 -55 4 -98 4 -75 0 -77 1 -67 20 12 23 75 28 129
9z"/>
<path d="M3215 3271 c-31 -13 -91 -74 -97 -98 -4 -13 0 -27 8 -34 8 -6 14 -7
14 -2 0 5 10 9 23 9 15 -1 26 8 37 31 18 38 23 40 49 12 49 -53 52 -181 5
-230 -14 -15 -24 -33 -22 -41 8 -22 55 39 73 93 9 27 21 51 26 54 12 8 12 112
0 119 -5 3 -12 18 -16 33 -13 55 -49 74 -100 54z"/>
<path d="M2067 3252 c-21 -23 -34 -107 -19 -116 6 -4 20 2 32 14 20 20 41 26
52 14 4 -3 -10 -20 -30 -39 -34 -31 -36 -34 -23 -61 l13 -29 34 72 c36 76 35
103 -3 145 -20 23 -36 23 -56 0z"/>
<path d="M2349 3144 c-9 -12 -5 -14 25 -14 38 0 42 14 7 23 -11 3 -25 -1 -32
-9z"/>
<path d="M3090 3104 c0 -27 16 -48 29 -40 7 5 11 -1 11 -13 0 -23 15 -28 23
-8 4 8 8 9 14 1 4 -6 23 -13 41 -16 30 -4 32 -2 32 24 0 18 -5 28 -15 28 -8 0
-15 4 -15 9 0 12 -17 18 -74 26 -41 6 -46 5 -46 -11z"/>
<path d="M2963 3088 c-2 -18 0 -20 7 -8 12 18 13 30 2 30 -4 0 -9 -10 -9 -22z"/>
<path d="M2950 3025 c0 -8 2 -15 4 -15 2 0 6 7 10 15 3 8 1 15 -4 15 -6 0 -10
-7 -10 -15z"/>
<path d="M3120 2981 c0 -33 16 -49 33 -32 7 7 7 18 -1 36 -16 34 -32 32 -32
-4z"/>
<path d="M2580 2776 c0 -2 7 -9 15 -16 9 -7 15 -8 15 -2 0 5 -7 12 -15 16 -8
3 -15 4 -15 2z"/>
<path d="M568 2523 c7 -3 16 -2 19 1 4 3 -2 6 -13 5 -11 0 -14 -3 -6 -6z"/>
<path d="M631 2520 c19 -11 94 -21 82 -10 -4 4 -28 10 -53 14 -31 4 -40 3 -29
-4z"/>
<path d="M2179 2515 c-4 -43 -5 -75 -1 -75 10 0 41 38 47 59 6 20 5 23 -11 17
-10 -4 -21 -1 -26 6 -5 9 -8 7 -9 -7z"/>
<path d="M3855 2510 c-8 -13 20 -24 36 -15 8 6 7 10 -2 16 -18 11 -26 11 -34
-1z"/>
<path d="M735 2470 c3 -5 8 -10 11 -10 2 0 4 5 4 10 0 6 -5 10 -11 10 -5 0 -7
-4 -4 -10z"/>
<path d="M800 2440 c0 -6 7 -13 15 -16 8 -4 12 -10 9 -15 -3 -5 -11 -6 -17 -3
-9 5 -9 4 0 -6 6 -7 22 -18 35 -24 14 -7 24 -22 26 -38 3 -25 6 -27 35 -21 18
4 37 13 44 22 11 14 12 14 13 -1 0 -10 3 -19 8 -19 4 -1 16 -3 27 -4 11 -2 38
-12 60 -23 39 -20 40 -20 47 -1 4 10 14 19 23 19 8 0 15 4 15 9 0 20 -33 41
-64 41 -17 0 -36 4 -41 9 -6 6 -32 12 -60 16 -27 3 -58 14 -70 24 -40 37 -105
56 -105 31z m128 -66 c34 -3 37 -4 22 -14 -27 -18 -69 -3 -55 20 4 7 10 8 14
4 3 -5 12 -9 19 -10z"/>
<path d="M765 2420 c4 -6 11 -8 16 -5 14 9 11 15 -7 15 -8 0 -12 -5 -9 -10z"/>
<path d="M1859 2385 c-1 -3 -2 -10 -3 -15 0 -6 -6 -14 -11 -18 -13 -9 -40 -88
-38 -113 1 -11 -5 -19 -13 -19 -8 0 -14 -4 -14 -10 0 -5 -7 -10 -16 -10 -14 0
-14 -3 -4 -15 11 -14 14 -14 24 0 8 12 40 16 134 20 80 4 122 2 122 -5 0 -5 9
-10 20 -10 13 0 20 7 20 20 0 11 -7 20 -15 20 -8 0 -15 5 -15 10 0 6 6 10 14
10 17 0 40 54 33 74 -5 12 -21 15 -71 12 -56 -2 -69 -6 -90 -29 -14 -15 -32
-27 -41 -27 -23 0 -18 13 12 31 l26 17 -26 17 c-15 9 -27 24 -27 31 0 13 -18
21 -21 9z m98 -119 c-10 -26 -25 -18 -19 10 3 17 8 22 15 15 5 -5 7 -17 4 -25z"/>
<path d="M700 2327 c0 -7 15 -18 33 -25 42 -15 47 -15 47 1 0 7 -15 18 -33 25
-42 15 -47 15 -47 -1z"/>
<path d="M1230 2320 c-10 -6 -11 -10 -2 -10 6 0 12 -7 12 -15 0 -14 9 -16 68
-19 33 -2 17 26 -23 40 -22 7 -40 14 -40 14 0 0 -7 -5 -15 -10z"/>
<path d="M1532 2305 c-7 -15 -20 -25 -32 -25 -24 0 -24 -3 -5 -40 15 -29 35
-40 35 -20 0 5 6 7 13 4 7 -2 13 4 14 16 1 14 -4 20 -18 20 -20 0 -26 15 -9
25 15 9 32 45 22 45 -5 0 -14 -11 -20 -25z"/>
<path d="M1648 2323 c-19 -5 -25 -23 -9 -23 17 0 41 12 41 21 0 9 -4 10 -32 2z"/>
<path d="M1688 2303 c-10 -3 -15 -10 -11 -19 3 -8 -1 -14 -11 -14 -9 0 -16 -7
-16 -15 0 -8 -7 -15 -15 -15 -8 0 -15 5 -15 10 0 6 -8 2 -18 -7 -17 -17 -16
-18 18 -23 25 -4 41 -1 56 12 11 10 25 18 30 18 10 0 13 45 4 52 -3 3 -13 3
-22 1z"/>
<path d="M1744 2284 c4 -15 2 -32 -5 -40 -12 -15 -2 -18 25 -8 14 5 14 9 4 22
-11 12 -11 16 0 20 10 3 10 7 1 18 -19 23 -32 16 -25 -12z"/>
<path d="M845 2280 c3 -5 8 -10 11 -10 2 0 4 5 4 10 0 6 -5 10 -11 10 -5 0 -7
-4 -4 -10z"/>
<path d="M1280 2245 c-10 -12 -10 -15 3 -15 8 0 17 -6 20 -12 7 -21 17 -4 10
20 -6 26 -16 28 -33 7z"/>
<path d="M1356 2225 c-3 -9 0 -15 9 -15 16 0 20 16 6 24 -5 3 -11 -1 -15 -9z"/>
<path d="M1640 2165 c-7 -9 -11 -18 -8 -20 3 -3 11 1 18 10 7 9 11 18 8 20 -3
3 -11 -1 -18 -10z"/>
<path d="M1597 2156 c-3 -8 0 -17 7 -19 10 -4 12 1 9 14 -6 23 -9 24 -16 5z"/>
<path d="M1935 2159 c-4 -6 1 -16 11 -24 23 -16 28 -13 19 14 -7 23 -20 27
-30 10z"/>
<path d="M1540 2124 c0 -14 3 -14 15 -4 8 7 15 14 15 16 0 2 -7 4 -15 4 -8 0
-15 -7 -15 -16z"/>
<path d="M1660 2015 c0 -30 2 -34 13 -23 14 13 12 44 -4 54 -5 3 -9 -11 -9
-31z"/>
<path d="M1948 2014 c-5 -4 -8 -19 -8 -33 0 -18 3 -22 11 -14 6 6 9 21 7 33
-1 12 -6 18 -10 14z"/>
<path d="M1692 1965 c0 -16 2 -22 5 -12 2 9 2 23 0 30 -3 6 -5 -1 -5 -18z"/>
<path d="M1341 1874 c0 -11 3 -14 6 -6 3 7 2 16 -1 19 -3 4 -6 -2 -5 -13z"/>
<path d="M1311 1770 c-1 -8 -4 -26 -7 -40 -5 -19 -4 -22 5 -14 7 6 11 24 8 40
-2 16 -5 22 -6 14z"/>
<path d="M510 2330 c0 -5 5 -10 10 -10 6 0 10 5 10 10 0 6 -4 10 -10 10 -5 0
-10 -4 -10 -10z"/>
<path d="M492 2254 c3 -19 63 -42 75 -30 14 14 -15 41 -46 44 -27 3 -32 0 -29
-14z"/>
<path d="M378 2152 c25 -19 72 -27 72 -13 0 10 -54 31 -79 31 -12 0 -10 -5 7
-18z"/>
<path d="M388 2083 c7 -3 16 -2 19 1 4 3 -2 6 -13 5 -11 0 -14 -3 -6 -6z"/>
<path d="M555 2080 c-3 -5 -2 -10 4 -10 5 0 13 5 16 10 3 6 2 10 -4 10 -5 0
-13 -4 -16 -10z"/>
<path d="M4648 2253 c7 -3 16 -2 19 1 4 3 -2 6 -13 5 -11 0 -14 -3 -6 -6z"/>
<path d="M1145 1920 c3 -5 8 -10 11 -10 2 0 4 5 4 10 0 6 -5 10 -11 10 -5 0
-7 -4 -4 -10z"/>
<path d="M920 1960 c0 -19 3 -21 12 -12 9 9 9 15 0 24 -9 9 -12 7 -12 -12z"/>
<path d="M931 1904 c0 -11 3 -14 6 -6 3 7 2 16 -1 19 -3 4 -6 -2 -5 -13z"/>
<path d="M4131 1711 c-8 -6 -15 -34 -12 -55 1 -13 51 35 51 49 0 12 -23 16
-39 6z m24 -11 c3 -5 1 -10 -4 -10 -6 0 -11 5 -11 10 0 6 2 10 4 10 3 0 8 -4
11 -10z"/>
<path d="M3972 1620 c-11 -18 -10 -20 11 -20 13 0 44 -7 70 -16 26 -9 52 -14
59 -11 16 6 -69 46 -99 47 -12 0 -23 5 -25 10 -2 6 -9 1 -16 -10z"/>
<path d="M3545 1760 c-3 -5 -2 -10 4 -10 5 0 13 5 16 10 3 6 2 10 -4 10 -5 0
-13 -4 -16 -10z"/>
<path d="M3525 1700 c-3 -6 1 -7 9 -4 18 7 21 14 7 14 -6 0 -13 -4 -16 -10z"/>
<path d="M3497 1673 c-4 -3 -7 -11 -7 -17 0 -6 5 -5 12 2 6 6 9 14 7 17 -3 3
-9 2 -12 -2z"/>
<path d="M3656 1655 c-3 -9 -6 -22 -5 -28 0 -7 5 -1 10 12 5 13 8 26 5 28 -2
2 -6 -3 -10 -12z"/>
<path d="M3664 1583 c-15 -27 -37 -64 -49 -83 -41 -66 -47 -80 -31 -74 19 7
75 91 83 124 3 14 12 37 20 53 23 45 6 30 -23 -20z"/>
<path d="M3485 1599 c-4 -6 -5 -12 -2 -15 2 -3 7 2 10 11 7 17 1 20 -8 4z"/>
<path d="M3455 1549 c-4 -6 -5 -12 -2 -15 2 -3 7 2 10 11 7 17 1 20 -8 4z"/>
<path d="M3485 1529 c-4 -6 -5 -12 -2 -15 2 -3 7 2 10 11 7 17 1 20 -8 4z"/>
<path d="M3457 1483 c-4 -3 -7 -11 -7 -17 0 -6 5 -5 12 2 6 6 9 14 7 17 -3 3
-9 2 -12 -2z"/>
<path d="M3490 1449 c0 -5 5 -7 10 -4 6 3 10 8 10 11 0 2 -4 4 -10 4 -5 0 -10
-5 -10 -11z"/>
<path d="M3480 1303 c0 -5 -16 -18 -35 -29 -23 -12 -35 -25 -34 -39 1 -17 2
-18 6 -2 4 14 8 16 19 6 8 -6 14 -16 14 -21 0 -6 11 -19 25 -30 l25 -20 -6
-154 c-6 -127 -4 -154 7 -154 8 0 23 -3 35 -6 20 -5 21 -2 27 123 8 196 25
213 28 28 l2 -150 7 110 c4 61 8 125 9 143 0 17 5 32 10 32 5 0 7 -20 5 -44
-5 -47 6 -65 26 -41 7 8 8 15 3 15 -14 0 -10 65 6 84 10 12 11 19 2 30 -8 10
-9 16 -1 21 5 3 10 21 10 39 0 17 5 37 10 44 6 7 -11 -8 -37 -33 -45 -43 -73
-57 -73 -34 0 5 -4 8 -9 5 -12 -8 -43 29 -34 39 5 4 2 5 -5 1 -7 -4 -10 -12
-7 -17 8 -12 -28 2 -37 15 -4 6 -2 16 4 23 6 8 8 16 4 20 -3 3 -6 2 -6 -4z
m145 -143 c3 -5 1 -10 -4 -10 -6 0 -11 5 -11 10 0 6 2 10 4 10 3 0 8 -4 11
-10z m-95 -114 c0 -8 -4 -18 -10 -21 -5 -3 -10 3 -10 14 0 12 5 21 10 21 6 0
10 -6 10 -14z m0 -132 c0 -8 -7 -14 -15 -14 -8 0 -15 9 -15 20 0 13 5 18 15
14 8 -4 15 -12 15 -20z"/>
<path d="M3412 1170 c0 -14 2 -19 5 -12 2 6 2 18 0 25 -3 6 -5 1 -5 -13z"/>
<path d="M3447 1174 c-12 -12 -8 -23 13 -34 23 -12 26 -2 7 24 -7 9 -16 14
-20 10z"/>
<path d="M3625 1020 c26 -11 55 -12 55 -2 0 4 -17 8 -38 9 -28 1 -32 -1 -17
-7z"/>
<path d="M3147 914 c-23 -23 7 -69 37 -58 17 6 23 54 7 54 -5 0 -16 2 -23 5
-8 3 -17 2 -21 -1z"/>
<path d="M2923 807 l-8 -72 28 -3 c16 -2 30 -2 32 0 7 6 23 143 17 148 -2 3
-7 0 -9 -7 -3 -8 -12 -9 -28 -3 -23 9 -23 7 -32 -63z"/>
<path d="M3421 854 c0 -11 3 -14 6 -6 3 7 2 16 -1 19 -3 4 -6 -2 -5 -13z"/>
<path d="M3095 850 c28 -12 47 -12 40 0 -3 6 -18 10 -33 9 -24 0 -25 -1 -7 -9z"/>
<path d="M3010 800 c0 -16 7 -20 33 -20 53 0 63 15 19 28 -51 16 -52 15 -52
-8z"/>
<path d="M3525 750 c-3 -5 -2 -10 4 -10 5 0 13 5 16 10 3 6 2 10 -4 10 -5 0
-13 -4 -16 -10z"/>
<path d="M3520 710 c0 -5 4 -10 9 -10 6 0 13 5 16 10 3 6 -1 10 -9 10 -9 0
-16 -4 -16 -10z"/>
<path d="M2046 1734 c-5 -14 -4 -15 9 -4 17 14 19 20 6 20 -5 0 -12 -7 -15
-16z"/>
<path d="M2031 1643 c0 -11 3 -13 6 -5 2 6 10 9 15 6 7 -4 8 -2 4 4 -11 18
-26 14 -25 -5z"/>
<path d="M2000 1579 c0 -5 5 -7 10 -4 6 3 10 8 10 11 0 2 -4 4 -10 4 -5 0 -10
-5 -10 -11z"/>
<path d="M2005 1540 c-3 -6 1 -7 9 -4 18 7 21 14 7 14 -6 0 -13 -4 -16 -10z"/>
<path d="M1961 1373 c0 -11 3 -13 6 -5 2 6 9 10 14 6 5 -3 9 0 9 5 0 6 -7 11
-15 11 -8 0 -15 -8 -14 -17z"/>
<path d="M1890 1700 c-12 -17 -26 -27 -31 -24 -6 3 -9 0 -8 -7 1 -8 -1 -22 -6
-32 -9 -21 13 -50 33 -42 10 4 13 0 9 -15 -3 -11 -1 -17 4 -14 6 3 9 13 7 22
-1 10 1 23 5 30 5 8 2 12 -9 12 -17 0 -16 1 1 13 10 8 15 19 11 25 -4 7 -3 12
1 12 5 0 10 11 11 25 2 32 -2 32 -28 -5z"/>
<path d="M1785 1280 c-3 -5 -1 -10 4 -10 6 0 11 5 11 10 0 6 -2 10 -4 10 -3 0
-8 -4 -11 -10z"/>
<path d="M1751 1004 c0 -11 3 -14 6 -6 3 7 2 16 -1 19 -3 4 -6 -2 -5 -13z"/>
<path d="M622 1490 c0 -14 2 -19 5 -12 2 6 2 18 0 25 -3 6 -5 1 -5 -13z"/>
<path d="M1202 1459 c2 -7 10 -15 17 -17 8 -3 12 1 9 9 -2 7 -10 15 -17 17 -8
3 -12 -1 -9 -9z"/>
</g>
</svg>
